<svg xmlns="http://www.w3.org/2000/svg" viewBox="0 0 162.53 169.18"><defs><style>.cls-1{fill:#14132a;}.cls-2{fill:#fff;}</style></defs><g id="Capa_2" data-name="Capa 2"><g id="Capa_1-2" data-name="Capa 1"><ellipse class="cls-1" cx="80.02" cy="94.58" rx="80.02" ry="74.6"/><path class="cls-2" d="M158,148.39H78.3A3.29,3.29,0,0,1,75,145.1c0-5.74,0-11.4,0-17.06q.08-35.29.19-70.59a6.45,6.45,0,0,0-2.14-5L58,36.74A3.29,3.29,0,0,0,52.35,39c0,18.87,0,34.19,0,54.21,0,1.43.55,1.7,1.8,1.68,5.17,0,7.27,0,12.44-.07C69,94.9,68.73,98.4,68.7,100c0,2.36,0,4.72.12,7.07.05,1.35-.33,1.93-1.83,1.92-8.92-.07-16.38-.06-25.3,0-1.48,0-3.42-2.22-3.41-3.78,0-33.86,0-65.89,0-99.75,0-.43,0-1.19,0-2.09A3.28,3.28,0,0,1,43.89,1h0c15.68,15.7,27.92,27.85,43.65,43.49,1.68,1.67,1.55,6.81,1.54,9.15C89,67.82,89.08,82,89,96.26c0,1.48.41,1.78,1.83,1.76q12.81-.13,25.61,0a6.06,6.06,0,0,1,3.71,1.55l41,41.07A4.57,4.57,0,0,1,158,148.39ZM127,133.08a3.28,3.28,0,0,0,2.34-5.58l-14.2-14.37a4.77,4.77,0,0,0-3-1.18l-19.74,0a3.28,3.28,0,0,0-3.28,3.22l-.25,16.49c0,1.71,1,1.42,2,1.42Z"/></g></g></svg>